<svg id="visual" viewBox="0 0 900 600" width="900" height="600" xmlns="http://www.w3.org/2000/svg" xmlns:xlink="http://www.w3.org/1999/xlink" version="1.1"><rect x="0" y="0" width="900" height="600" fill="#001220"></rect><path d="M0 413L21.5 406.2C43 399.3 86 385.7 128.8 378.8C171.7 372 214.3 372 257.2 378.7C300 385.3 343 398.7 385.8 401C428.7 403.3 471.3 394.7 514.2 384.3C557 374 600 362 642.8 366.5C685.7 371 728.3 392 771.2 408C814 424 857 435 878.5 440.5L900 446L900 601L878.5 601C857 601 814 601 771.2 601C728.3 601 685.7 601 642.8 601C600 601 557 601 514.2 601C471.3 601 428.7 601 385.8 601C343 601 300 601 257.2 601C214.3 601 171.7 601 128.8 601C86 601 43 601 21.5 601L0 601Z" fill="#c62368"></path><path d="M0 465L21.5 453.3C43 441.7 86 418.3 128.8 420.2C171.7 422 214.3 449 257.2 455.5C300 462 343 448 385.8 439.5C428.7 431 471.3 428 514.2 432.5C557 437 600 449 642.8 454.2C685.7 459.3 728.3 457.7 771.2 450.7C814 443.7 857 431.3 878.5 425.2L900 419L900 601L878.5 601C857 601 814 601 771.2 601C728.3 601 685.7 601 642.8 601C600 601 557 601 514.2 601C471.3 601 428.7 601 385.8 601C343 601 300 601 257.2 601C214.3 601 171.7 601 128.8 601C86 601 43 601 21.5 601L0 601Z" fill="#d53867"></path><path d="M0 459L21.5 466C43 473 86 487 128.8 484.7C171.7 482.3 214.3 463.7 257.2 454.2C300 444.7 343 444.3 385.8 444.2C428.7 444 471.3 444 514.2 453.7C557 463.3 600 482.7 642.8 492.2C685.7 501.7 728.3 501.3 771.2 498.7C814 496 857 491 878.5 488.5L900 486L900 601L878.5 601C857 601 814 601 771.2 601C728.3 601 685.7 601 642.8 601C600 601 557 601 514.2 601C471.3 601 428.7 601 385.8 601C343 601 300 601 257.2 601C214.3 601 171.7 601 128.8 601C86 601 43 601 21.5 601L0 601Z" fill="#e34c67"></path><path d="M0 498L21.5 504.7C43 511.3 86 524.7 128.8 527.2C171.7 529.7 214.3 521.3 257.2 521.2C300 521 343 529 385.8 533.5C428.7 538 471.3 539 514.2 535.5C557 532 600 524 642.8 520.3C685.7 516.7 728.3 517.3 771.2 513.5C814 509.7 857 501.3 878.5 497.2L900 493L900 601L878.5 601C857 601 814 601 771.2 601C728.3 601 685.7 601 642.8 601C600 601 557 601 514.2 601C471.3 601 428.7 601 385.8 601C343 601 300 601 257.2 601C214.3 601 171.7 601 128.8 601C86 601 43 601 21.5 601L0 601Z" fill="#ef5f67"></path><path d="M0 551L21.5 550.8C43 550.7 86 550.3 128.8 551.7C171.7 553 214.3 556 257.2 560C300 564 343 569 385.8 567.3C428.7 565.7 471.3 557.3 514.2 556.3C557 555.3 600 561.7 642.8 565.8C685.7 570 728.3 572 771.2 571.2C814 570.3 857 566.7 878.5 564.8L900 563L900 601L878.5 601C857 601 814 601 771.2 601C728.3 601 685.7 601 642.8 601C600 601 557 601 514.2 601C471.3 601 428.7 601 385.8 601C343 601 300 601 257.2 601C214.3 601 171.7 601 128.8 601C86 601 43 601 21.5 601L0 601Z" fill="#fa7268"></path></svg>